<svg xmlns="http://www.w3.org/2000/svg" width="24" height="24" viewBox="0 0 24 24" fill="none">
  <!-- Иконка, символизирующая Python (две змеи) и управление (шестеренка) -->
  <path d="M9 3a2 2 0 0 1 2 2v2.5a2.5 2.5 0 0 1-5 0V5a2 2 0 0 1 2-2z" stroke="#0077b6" stroke-width="1.5"/>
  <path d="M15 21a2 2 0 0 1-2-2v-2.5a2.5 2.5 0 0 1 5 0V19a2 2 0 0 1-2 2z" stroke="#90e0ef" stroke-width="1.5"/>
  <path d="M6 8.5v4.5a2 2 0 0 0 2 2h8a2 2 0 0 0 2-2V8.5" stroke="currentColor" stroke-width="1.5" stroke-linecap="round"/>
</svg>